<svg width="246" height="43" viewBox="0 0 246 43" fill="none" xmlns="http://www.w3.org/2000/svg">
<path d="M37.52 30.24C37.04 30.24 36.65 30.13 36.35 29.91C36.07 29.69 35.9 29.4 35.84 29.04C35.78 28.66 35.85 28.24 36.05 27.78L43.97 10.23C44.23 9.65 44.54 9.24 44.9 9C45.28 8.74 45.71 8.61 46.19 8.61C46.65 8.61 47.06 8.74 47.42 9C47.8 9.24 48.12 9.65 48.38 10.23L56.33 27.78C56.55 28.24 56.63 28.66 56.57 29.04C56.51 29.42 56.34 29.72 56.06 29.94C55.78 30.14 55.41 30.24 54.95 30.24C54.39 30.24 53.95 30.11 53.63 29.85C53.33 29.57 53.06 29.15 52.82 28.59L50.87 24.06L52.49 25.11H39.83L41.45 24.06L39.53 28.59C39.27 29.17 39 29.59 38.72 29.85C38.44 30.11 38.04 30.24 37.52 30.24ZM46.13 13.02L41.93 23.01L41.15 22.05H51.17L50.42 23.01L46.19 13.02H46.13ZM64.2842 30.3C62.6242 30.3 61.3742 29.83 60.5342 28.89C59.6942 27.93 59.2742 26.53 59.2742 24.69V10.5C59.2742 9.88 59.4342 9.41 59.7542 9.09C60.0742 8.77 60.5342 8.61 61.1342 8.61C61.7342 8.61 62.1942 8.77 62.5142 9.09C62.8542 9.41 63.0242 9.88 63.0242 10.5V24.51C63.0242 25.43 63.2142 26.11 63.5942 26.55C63.9942 26.99 64.5542 27.21 65.2742 27.21C65.4342 27.21 65.5842 27.21 65.7242 27.21C65.8642 27.19 66.0042 27.17 66.1442 27.15C66.4242 27.11 66.6142 27.19 66.7142 27.39C66.8142 27.57 66.8642 27.95 66.8642 28.53C66.8642 29.03 66.7642 29.42 66.5642 29.7C66.3642 29.98 66.0342 30.15 65.5742 30.21C65.3742 30.23 65.1642 30.25 64.9442 30.27C64.7242 30.29 64.5042 30.3 64.2842 30.3ZM73.6843 30.3C72.6243 30.3 71.6743 30.1 70.8343 29.7C70.0143 29.28 69.3643 28.72 68.8843 28.02C68.4243 27.32 68.1943 26.53 68.1943 25.65C68.1943 24.57 68.4743 23.72 69.0343 23.1C69.5943 22.46 70.5043 22 71.7643 21.72C73.0243 21.44 74.7143 21.3 76.8343 21.3H78.3343V23.46H76.8643C75.6243 23.46 74.6343 23.52 73.8943 23.64C73.1543 23.76 72.6243 23.97 72.3043 24.27C72.0043 24.55 71.8543 24.95 71.8543 25.47C71.8543 26.13 72.0843 26.67 72.5443 27.09C73.0043 27.51 73.6443 27.72 74.4643 27.72C75.1243 27.72 75.7043 27.57 76.2043 27.27C76.7243 26.95 77.1343 26.52 77.4343 25.98C77.7343 25.44 77.8843 24.82 77.8843 24.12V20.67C77.8843 19.67 77.6643 18.95 77.2243 18.51C76.7843 18.07 76.0443 17.85 75.0043 17.85C74.4243 17.85 73.7943 17.92 73.1143 18.06C72.4543 18.2 71.7543 18.44 71.0143 18.78C70.6343 18.96 70.2943 19.01 69.9943 18.93C69.7143 18.85 69.4943 18.69 69.3343 18.45C69.1743 18.19 69.0943 17.91 69.0943 17.61C69.0943 17.31 69.1743 17.02 69.3343 16.74C69.4943 16.44 69.7643 16.22 70.1443 16.08C71.0643 15.7 71.9443 15.43 72.7843 15.27C73.6443 15.11 74.4243 15.03 75.1243 15.03C76.5643 15.03 77.7443 15.25 78.6643 15.69C79.6043 16.13 80.3043 16.8 80.7643 17.7C81.2243 18.58 81.4543 19.72 81.4543 21.12V28.32C81.4543 28.94 81.3043 29.42 81.0043 29.76C80.7043 30.08 80.2743 30.24 79.7143 30.24C79.1543 30.24 78.7143 30.08 78.3943 29.76C78.0943 29.42 77.9443 28.94 77.9443 28.32V26.88H78.1843C78.0443 27.58 77.7643 28.19 77.3443 28.71C76.9443 29.21 76.4343 29.6 75.8143 29.88C75.1943 30.16 74.4843 30.3 73.6843 30.3ZM91.9505 30.3C90.4305 30.3 89.1105 29.99 87.9905 29.37C86.8705 28.75 86.0005 27.87 85.3805 26.73C84.7605 25.57 84.4505 24.21 84.4505 22.65C84.4505 21.47 84.6205 20.42 84.9605 19.5C85.3205 18.56 85.8305 17.76 86.4905 17.1C87.1505 16.42 87.9405 15.91 88.8605 15.57C89.7805 15.21 90.8105 15.03 91.9505 15.03C93.4705 15.03 94.7905 15.34 95.9105 15.96C97.0305 16.58 97.9005 17.46 98.5205 18.6C99.1405 19.74 99.4505 21.09 99.4505 22.65C99.4505 23.83 99.2705 24.89 98.9105 25.83C98.5705 26.77 98.0705 27.58 97.4105 28.26C96.7505 28.92 95.9605 29.43 95.0405 29.79C94.1205 30.13 93.0905 30.3 91.9505 30.3ZM91.9505 27.45C92.6905 27.45 93.3405 27.27 93.9005 26.91C94.4605 26.55 94.8905 26.02 95.1905 25.32C95.5105 24.6 95.6705 23.71 95.6705 22.65C95.6705 21.05 95.3305 19.86 94.6505 19.08C93.9705 18.28 93.0705 17.88 91.9505 17.88C91.2105 17.88 90.5605 18.06 90.0005 18.42C89.4405 18.76 89.0005 19.29 88.6805 20.01C88.3805 20.71 88.2305 21.59 88.2305 22.65C88.2305 24.23 88.5705 25.43 89.2505 26.25C89.9305 27.05 90.8305 27.45 91.9505 27.45ZM107.856 30.3C106.636 30.3 105.626 30.08 104.826 29.64C104.026 29.18 103.426 28.5 103.026 27.6C102.646 26.7 102.456 25.58 102.456 24.24V16.98C102.456 16.34 102.616 15.87 102.936 15.57C103.256 15.25 103.716 15.09 104.316 15.09C104.916 15.09 105.376 15.25 105.696 15.57C106.036 15.87 106.206 16.34 106.206 16.98V24.3C106.206 25.34 106.416 26.11 106.836 26.61C107.256 27.11 107.926 27.36 108.846 27.36C109.846 27.36 110.666 27.02 111.306 26.34C111.946 25.64 112.266 24.72 112.266 23.58V16.98C112.266 16.34 112.426 15.87 112.746 15.57C113.066 15.25 113.526 15.09 114.126 15.09C114.726 15.09 115.186 15.25 115.506 15.57C115.846 15.87 116.016 16.34 116.016 16.98V28.32C116.016 29.6 115.406 30.24 114.186 30.24C113.606 30.24 113.156 30.08 112.836 29.76C112.516 29.42 112.356 28.94 112.356 28.32V26.04L112.776 26.94C112.356 28.02 111.716 28.85 110.856 29.43C110.016 30.01 109.016 30.3 107.856 30.3ZM121.779 30.21C121.179 30.21 120.719 30.03 120.399 29.67C120.079 29.31 119.919 28.81 119.919 28.17V17.16C119.919 16.5 120.079 16 120.399 15.66C120.719 15.3 121.179 15.12 121.779 15.12C122.379 15.12 122.839 15.3 123.159 15.66C123.499 16 123.669 16.5 123.669 17.16V28.17C123.669 28.81 123.509 29.31 123.189 29.67C122.869 30.03 122.399 30.21 121.779 30.21ZM121.779 12.33C121.079 12.33 120.529 12.16 120.129 11.82C119.749 11.46 119.559 10.97 119.559 10.35C119.559 9.71 119.749 9.22 120.129 8.88C120.529 8.54 121.079 8.37 121.779 8.37C122.499 8.37 123.049 8.54 123.429 8.88C123.809 9.22 123.999 9.71 123.999 10.35C123.999 10.97 123.809 11.46 123.429 11.82C123.049 12.16 122.499 12.33 121.779 12.33ZM126.995 30.21C126.435 30.23 125.995 30.08 125.675 29.76C125.355 29.44 125.195 29.03 125.195 28.53C125.195 28.15 125.315 27.82 125.555 27.54C125.775 27.24 126.105 27.08 126.545 27.06L127.445 27C128.325 26.94 128.985 26.67 129.425 26.19C129.885 25.69 130.115 24.98 130.115 24.06V10.56C130.115 9.92 130.275 9.44 130.595 9.12C130.935 8.78 131.415 8.61 132.035 8.61C132.655 8.61 133.125 8.78 133.445 9.12C133.785 9.44 133.955 9.92 133.955 10.56V24.03C133.955 25.29 133.725 26.36 133.265 27.24C132.825 28.12 132.165 28.81 131.285 29.31C130.405 29.79 129.315 30.07 128.015 30.15L126.995 30.21ZM144.861 30.3C143.341 30.3 142.021 29.99 140.901 29.37C139.781 28.75 138.911 27.87 138.291 26.73C137.671 25.57 137.361 24.21 137.361 22.65C137.361 21.47 137.531 20.42 137.871 19.5C138.231 18.56 138.741 17.76 139.401 17.1C140.061 16.42 140.851 15.91 141.771 15.57C142.691 15.21 143.721 15.03 144.861 15.03C146.381 15.03 147.701 15.34 148.821 15.96C149.941 16.58 150.811 17.46 151.431 18.6C152.051 19.74 152.361 21.09 152.361 22.65C152.361 23.83 152.181 24.89 151.821 25.83C151.481 26.77 150.981 27.58 150.321 28.26C149.661 28.92 148.871 29.43 147.951 29.79C147.031 30.13 146.001 30.3 144.861 30.3ZM144.861 27.45C145.601 27.45 146.251 27.27 146.811 26.91C147.371 26.55 147.801 26.02 148.101 25.32C148.421 24.6 148.581 23.71 148.581 22.65C148.581 21.05 148.241 19.86 147.561 19.08C146.881 18.28 145.981 17.88 144.861 17.88C144.121 17.88 143.471 18.06 142.911 18.42C142.351 18.76 141.911 19.29 141.591 20.01C141.291 20.71 141.141 21.59 141.141 22.65C141.141 24.23 141.481 25.43 142.161 26.25C142.841 27.05 143.741 27.45 144.861 27.45ZM163.916 30.3C162.676 30.3 161.586 29.99 160.646 29.37C159.726 28.75 159.116 27.92 158.816 26.88L159.146 26.13V28.32C159.146 28.94 158.986 29.42 158.666 29.76C158.346 30.08 157.896 30.24 157.316 30.24C156.716 30.24 156.256 30.08 155.936 29.76C155.616 29.42 155.456 28.94 155.456 28.32V10.5C155.456 9.88 155.616 9.41 155.936 9.09C156.256 8.77 156.716 8.61 157.316 8.61C157.916 8.61 158.376 8.77 158.696 9.09C159.036 9.41 159.206 9.88 159.206 10.5V18.3H158.846C159.166 17.32 159.786 16.53 160.706 15.93C161.626 15.33 162.696 15.03 163.916 15.03C165.216 15.03 166.346 15.34 167.306 15.96C168.266 16.58 169.016 17.46 169.556 18.6C170.096 19.72 170.366 21.07 170.366 22.65C170.366 24.21 170.096 25.57 169.556 26.73C169.016 27.87 168.256 28.75 167.276 29.37C166.316 29.99 165.196 30.3 163.916 30.3ZM162.866 27.45C163.606 27.45 164.256 27.27 164.816 26.91C165.376 26.55 165.806 26.02 166.106 25.32C166.426 24.6 166.586 23.71 166.586 22.65C166.586 21.05 166.246 19.86 165.566 19.08C164.886 18.28 163.986 17.88 162.866 17.88C162.126 17.88 161.476 18.06 160.916 18.42C160.356 18.76 159.916 19.29 159.596 20.01C159.296 20.71 159.146 21.59 159.146 22.65C159.146 24.23 159.486 25.43 160.166 26.25C160.846 27.05 161.746 27.45 162.866 27.45Z" fill="white"/>
<path d="M16.9172 17.5608H16.9255M20.2321 12.3738V10.6448C20.2321 10.1862 20.0575 9.74646 19.7467 9.42221C19.4359 9.09796 19.0143 8.9158 18.5747 8.9158H15.2598C14.8202 8.9158 14.3986 9.09796 14.0878 9.42221C13.7769 9.74646 13.6023 10.1862 13.6023 10.6448V12.3738M25.2045 18.4253C22.7455 20.1188 19.8638 21.0216 16.9172 21.0216C13.9706 21.0216 11.0889 20.1188 8.62991 18.4253M10.2874 12.3738H23.5471C24.4625 12.3738 25.2045 13.1479 25.2045 14.1028V22.7478C25.2045 23.7027 24.4625 24.4768 23.5471 24.4768H10.2874C9.37198 24.4768 8.62991 23.7027 8.62991 22.7478V14.1028C8.62991 13.1479 9.37198 12.3738 10.2874 12.3738Z" stroke="white" stroke-width="1.00962" stroke-linecap="round" stroke-linejoin="round"/>
<path d="M35.1493 36.5799L27.2303 28.3192M31.466 17.3689C31.466 25.8568 24.8698 32.7377 16.733 32.7377C8.59619 32.7377 2 25.8568 2 17.3689C2 8.88087 8.59619 2 16.733 2C24.8698 2 31.466 8.88087 31.466 17.3689Z" stroke="white" stroke-width="2.39071" stroke-linecap="round" stroke-linejoin="round"/>
</svg>
