<svg width="224" height="42" viewBox="0 0 224 42" fill="none" xmlns="http://www.w3.org/2000/svg">
<path d="M41.52 29.24C41.04 29.24 40.65 29.13 40.35 28.91C40.07 28.69 39.9 28.4 39.84 28.04C39.78 27.66 39.85 27.24 40.05 26.78L47.97 9.23C48.23 8.65 48.54 8.24 48.9 8C49.28 7.74 49.71 7.61 50.19 7.61C50.65 7.61 51.06 7.74 51.42 8C51.8 8.24 52.12 8.65 52.38 9.23L60.33 26.78C60.55 27.24 60.63 27.66 60.57 28.04C60.51 28.42 60.34 28.72 60.06 28.94C59.78 29.14 59.41 29.24 58.95 29.24C58.39 29.24 57.95 29.11 57.63 28.85C57.33 28.57 57.06 28.15 56.82 27.59L54.87 23.06L56.49 24.11H43.83L45.45 23.06L43.53 27.59C43.27 28.17 43 28.59 42.72 28.85C42.44 29.11 42.04 29.24 41.52 29.24ZM50.13 12.02L45.93 22.01L45.15 21.05H55.17L54.42 22.01L50.19 12.02H50.13ZM68.2842 29.3C66.6242 29.3 65.3742 28.83 64.5342 27.89C63.6942 26.93 63.2742 25.53 63.2742 23.69V9.5C63.2742 8.88 63.4342 8.41 63.7542 8.09C64.0742 7.77 64.5342 7.61 65.1342 7.61C65.7342 7.61 66.1942 7.77 66.5142 8.09C66.8542 8.41 67.0242 8.88 67.0242 9.5V23.51C67.0242 24.43 67.2142 25.11 67.5942 25.55C67.9942 25.99 68.5542 26.21 69.2742 26.21C69.4342 26.21 69.5842 26.21 69.7242 26.21C69.8642 26.19 70.0042 26.17 70.1442 26.15C70.4242 26.11 70.6142 26.19 70.7142 26.39C70.8142 26.57 70.8642 26.95 70.8642 27.53C70.8642 28.03 70.7642 28.42 70.5642 28.7C70.3642 28.98 70.0342 29.15 69.5742 29.21C69.3742 29.23 69.1642 29.25 68.9442 29.27C68.7242 29.29 68.5042 29.3 68.2842 29.3ZM77.6843 29.3C76.6243 29.3 75.6743 29.1 74.8343 28.7C74.0143 28.28 73.3643 27.72 72.8843 27.02C72.4243 26.32 72.1943 25.53 72.1943 24.65C72.1943 23.57 72.4743 22.72 73.0343 22.1C73.5943 21.46 74.5043 21 75.7643 20.72C77.0243 20.44 78.7143 20.3 80.8343 20.3H82.3343V22.46H80.8643C79.6243 22.46 78.6343 22.52 77.8943 22.64C77.1543 22.76 76.6243 22.97 76.3043 23.27C76.0043 23.55 75.8543 23.95 75.8543 24.47C75.8543 25.13 76.0843 25.67 76.5443 26.09C77.0043 26.51 77.6443 26.72 78.4643 26.72C79.1243 26.72 79.7043 26.57 80.2043 26.27C80.7243 25.95 81.1343 25.52 81.4343 24.98C81.7343 24.44 81.8843 23.82 81.8843 23.12V19.67C81.8843 18.67 81.6643 17.95 81.2243 17.51C80.7843 17.07 80.0443 16.85 79.0043 16.85C78.4243 16.85 77.7943 16.92 77.1143 17.06C76.4543 17.2 75.7543 17.44 75.0143 17.78C74.6343 17.96 74.2943 18.01 73.9943 17.93C73.7143 17.85 73.4943 17.69 73.3343 17.45C73.1743 17.19 73.0943 16.91 73.0943 16.61C73.0943 16.31 73.1743 16.02 73.3343 15.74C73.4943 15.44 73.7643 15.22 74.1443 15.08C75.0643 14.7 75.9443 14.43 76.7843 14.27C77.6443 14.11 78.4243 14.03 79.1243 14.03C80.5643 14.03 81.7443 14.25 82.6643 14.69C83.6043 15.13 84.3043 15.8 84.7643 16.7C85.2243 17.58 85.4543 18.72 85.4543 20.12V27.32C85.4543 27.94 85.3043 28.42 85.0043 28.76C84.7043 29.08 84.2743 29.24 83.7143 29.24C83.1543 29.24 82.7143 29.08 82.3943 28.76C82.0943 28.42 81.9443 27.94 81.9443 27.32V25.88H82.1843C82.0443 26.58 81.7643 27.19 81.3443 27.71C80.9443 28.21 80.4343 28.6 79.8143 28.88C79.1943 29.16 78.4843 29.3 77.6843 29.3ZM95.9505 29.3C94.4305 29.3 93.1105 28.99 91.9905 28.37C90.8705 27.75 90.0005 26.87 89.3805 25.73C88.7605 24.57 88.4505 23.21 88.4505 21.65C88.4505 20.47 88.6205 19.42 88.9605 18.5C89.3205 17.56 89.8305 16.76 90.4905 16.1C91.1505 15.42 91.9405 14.91 92.8605 14.57C93.7805 14.21 94.8105 14.03 95.9505 14.03C97.4705 14.03 98.7905 14.34 99.9105 14.96C101.031 15.58 101.901 16.46 102.521 17.6C103.141 18.74 103.451 20.09 103.451 21.65C103.451 22.83 103.271 23.89 102.911 24.83C102.571 25.77 102.071 26.58 101.411 27.26C100.751 27.92 99.9605 28.43 99.0405 28.79C98.1205 29.13 97.0905 29.3 95.9505 29.3ZM95.9505 26.45C96.6905 26.45 97.3405 26.27 97.9005 25.91C98.4605 25.55 98.8905 25.02 99.1905 24.32C99.5105 23.6 99.6705 22.71 99.6705 21.65C99.6705 20.05 99.3305 18.86 98.6505 18.08C97.9705 17.28 97.0705 16.88 95.9505 16.88C95.2105 16.88 94.5605 17.06 94.0005 17.42C93.4405 17.76 93.0005 18.29 92.6805 19.01C92.3805 19.71 92.2305 20.59 92.2305 21.65C92.2305 23.23 92.5705 24.43 93.2505 25.25C93.9305 26.05 94.8305 26.45 95.9505 26.45ZM111.856 29.3C110.636 29.3 109.626 29.08 108.826 28.64C108.026 28.18 107.426 27.5 107.026 26.6C106.646 25.7 106.456 24.58 106.456 23.24V15.98C106.456 15.34 106.616 14.87 106.936 14.57C107.256 14.25 107.716 14.09 108.316 14.09C108.916 14.09 109.376 14.25 109.696 14.57C110.036 14.87 110.206 15.34 110.206 15.98V23.3C110.206 24.34 110.416 25.11 110.836 25.61C111.256 26.11 111.926 26.36 112.846 26.36C113.846 26.36 114.666 26.02 115.306 25.34C115.946 24.64 116.266 23.72 116.266 22.58V15.98C116.266 15.34 116.426 14.87 116.746 14.57C117.066 14.25 117.526 14.09 118.126 14.09C118.726 14.09 119.186 14.25 119.506 14.57C119.846 14.87 120.016 15.34 120.016 15.98V27.32C120.016 28.6 119.406 29.24 118.186 29.24C117.606 29.24 117.156 29.08 116.836 28.76C116.516 28.42 116.356 27.94 116.356 27.32V25.04L116.776 25.94C116.356 27.02 115.716 27.85 114.856 28.43C114.016 29.01 113.016 29.3 111.856 29.3ZM125.779 29.21C125.179 29.21 124.719 29.03 124.399 28.67C124.079 28.31 123.919 27.81 123.919 27.17V16.16C123.919 15.5 124.079 15 124.399 14.66C124.719 14.3 125.179 14.12 125.779 14.12C126.379 14.12 126.839 14.3 127.159 14.66C127.499 15 127.669 15.5 127.669 16.16V27.17C127.669 27.81 127.509 28.31 127.189 28.67C126.869 29.03 126.399 29.21 125.779 29.21ZM125.779 11.33C125.079 11.33 124.529 11.16 124.129 10.82C123.749 10.46 123.559 9.97 123.559 9.35C123.559 8.71 123.749 8.22 124.129 7.88C124.529 7.54 125.079 7.37 125.779 7.37C126.499 7.37 127.049 7.54 127.429 7.88C127.809 8.22 127.999 8.71 127.999 9.35C127.999 9.97 127.809 10.46 127.429 10.82C127.049 11.16 126.499 11.33 125.779 11.33ZM130.995 29.21C130.435 29.23 129.995 29.08 129.675 28.76C129.355 28.44 129.195 28.03 129.195 27.53C129.195 27.15 129.315 26.82 129.555 26.54C129.775 26.24 130.105 26.08 130.545 26.06L131.445 26C132.325 25.94 132.985 25.67 133.425 25.19C133.885 24.69 134.115 23.98 134.115 23.06V9.56C134.115 8.92 134.275 8.44 134.595 8.12C134.935 7.78 135.415 7.61 136.035 7.61C136.655 7.61 137.125 7.78 137.445 8.12C137.785 8.44 137.955 8.92 137.955 9.56V23.03C137.955 24.29 137.725 25.36 137.265 26.24C136.825 27.12 136.165 27.81 135.285 28.31C134.405 28.79 133.315 29.07 132.015 29.15L130.995 29.21ZM148.861 29.3C147.341 29.3 146.021 28.99 144.901 28.37C143.781 27.75 142.911 26.87 142.291 25.73C141.671 24.57 141.361 23.21 141.361 21.65C141.361 20.47 141.531 19.42 141.871 18.5C142.231 17.56 142.741 16.76 143.401 16.1C144.061 15.42 144.851 14.91 145.771 14.57C146.691 14.21 147.721 14.03 148.861 14.03C150.381 14.03 151.701 14.34 152.821 14.96C153.941 15.58 154.811 16.46 155.431 17.6C156.051 18.74 156.361 20.09 156.361 21.65C156.361 22.83 156.181 23.89 155.821 24.83C155.481 25.77 154.981 26.58 154.321 27.26C153.661 27.92 152.871 28.43 151.951 28.79C151.031 29.13 150.001 29.3 148.861 29.3ZM148.861 26.45C149.601 26.45 150.251 26.27 150.811 25.91C151.371 25.55 151.801 25.02 152.101 24.32C152.421 23.6 152.581 22.71 152.581 21.65C152.581 20.05 152.241 18.86 151.561 18.08C150.881 17.28 149.981 16.88 148.861 16.88C148.121 16.88 147.471 17.06 146.911 17.42C146.351 17.76 145.911 18.29 145.591 19.01C145.291 19.71 145.141 20.59 145.141 21.65C145.141 23.23 145.481 24.43 146.161 25.25C146.841 26.05 147.741 26.45 148.861 26.45ZM167.916 29.3C166.676 29.3 165.586 28.99 164.646 28.37C163.726 27.75 163.116 26.92 162.816 25.88L163.146 25.13V27.32C163.146 27.94 162.986 28.42 162.666 28.76C162.346 29.08 161.896 29.24 161.316 29.24C160.716 29.24 160.256 29.08 159.936 28.76C159.616 28.42 159.456 27.94 159.456 27.32V9.5C159.456 8.88 159.616 8.41 159.936 8.09C160.256 7.77 160.716 7.61 161.316 7.61C161.916 7.61 162.376 7.77 162.696 8.09C163.036 8.41 163.206 8.88 163.206 9.5V17.3H162.846C163.166 16.32 163.786 15.53 164.706 14.93C165.626 14.33 166.696 14.03 167.916 14.03C169.216 14.03 170.346 14.34 171.306 14.96C172.266 15.58 173.016 16.46 173.556 17.6C174.096 18.72 174.366 20.07 174.366 21.65C174.366 23.21 174.096 24.57 173.556 25.73C173.016 26.87 172.256 27.75 171.276 28.37C170.316 28.99 169.196 29.3 167.916 29.3ZM166.866 26.45C167.606 26.45 168.256 26.27 168.816 25.91C169.376 25.55 169.806 25.02 170.106 24.32C170.426 23.6 170.586 22.71 170.586 21.65C170.586 20.05 170.246 18.86 169.566 18.08C168.886 17.28 167.986 16.88 166.866 16.88C166.126 16.88 165.476 17.06 164.916 17.42C164.356 17.76 163.916 18.29 163.596 19.01C163.296 19.71 163.146 20.59 163.146 21.65C163.146 23.23 163.486 24.43 164.166 25.25C164.846 26.05 165.746 26.45 166.866 26.45Z" fill="#3076D7"/>
<path d="M18.6501 16.0285H18.6593M22.3501 11.3999V9.85708C22.3501 9.44789 22.1551 9.05546 21.8082 8.76611C21.4613 8.47677 20.9907 8.31422 20.5001 8.31422H16.8001C16.3094 8.31422 15.8389 8.47677 15.4919 8.76611C15.145 9.05546 14.9501 9.44789 14.9501 9.85708V11.3999M27.9001 16.7999C25.1554 18.3111 21.9389 19.1167 18.6501 19.1167C15.3612 19.1167 12.1447 18.3111 9.40005 16.7999M11.2501 11.3999H26.0501C27.0718 11.3999 27.9001 12.0907 27.9001 12.9428V20.657C27.9001 21.5091 27.0718 22.1999 26.0501 22.1999H11.2501C10.2283 22.1999 9.40005 21.5091 9.40005 20.657V12.9428C9.40005 12.0907 10.2283 11.3999 11.2501 11.3999Z" stroke="#3076D7" stroke-width="1.00962" stroke-linecap="round" stroke-linejoin="round"/>
<path d="M39 33L30.1611 25.6286M34.8889 15.8572C34.8889 23.4314 27.5265 29.5714 18.4444 29.5714C9.36243 29.5714 2 23.4314 2 15.8572C2 8.28305 9.36243 2.14297 18.4444 2.14297C27.5265 2.14297 34.8889 8.28305 34.8889 15.8572Z" stroke="#3076D7" stroke-width="2.39071" stroke-linecap="round" stroke-linejoin="round"/>
</svg>
